<?xml version="1.0" standalone="no"?>
<!DOCTYPE svg PUBLIC "-//W3C//DTD SVG 20010904//EN"
 "http://www.w3.org/TR/2001/REC-SVG-20010904/DTD/svg10.dtd">
<svg version="1.0" xmlns="http://www.w3.org/2000/svg"
 width="305.000000pt" height="281.000000pt" viewBox="0 0 305.000000 281.000000"
 preserveAspectRatio="xMidYMid meet">

<g transform="translate(0.000000,281.000000) scale(0.100000,-0.100000)"
fill="#000000" stroke="none">
<path d="M1568 2763 c-25 -10 -38 -22 -38 -33 0 -28 14 -32 63 -18 58 15 100
-1 134 -53 44 -66 29 -159 -33 -208 -47 -37 -121 -52 -308 -61 -294 -16 -481
-79 -662 -224 -165 -132 -296 -331 -345 -524 -12 -48 -16 -53 -49 -62 -94 -25
-154 -104 -154 -200 0 -96 60 -175 155 -200 34 -10 38 -14 49 -63 20 -84 82
-217 140 -302 247 -357 678 -515 1102 -403 82 21 102 35 92 62 -8 20 -15 20
-96 -3 -331 -95 -678 -7 -926 233 -125 121 -211 267 -256 436 l-23 85 -44 7
c-183 31 -179 272 5 298 l39 5 23 85 c74 278 276 515 535 627 221 96 445 106
678 31 117 -37 183 -72 278 -145 168 -128 277 -289 338 -500 31 -104 30 -103
66 -103 39 0 102 -33 122 -64 9 -13 21 -43 26 -66 11 -51 17 -57 39 -44 23 15
25 34 12 84 -15 57 -81 121 -144 140 -48 15 -50 17 -63 68 -53 212 -214 435
-408 565 -70 47 -174 99 -230 117 -60 19 -60 21 -13 42 95 43 142 117 136 214
-5 79 -42 138 -108 172 -51 26 -81 27 -132 5z"/>
<path d="M954 1700 c-47 -19 -68 -85 -43 -132 17 -31 71 -50 108 -37 31 11 61
52 61 84 0 29 -28 71 -55 83 -30 14 -42 14 -71 2z"/>
<path d="M1685 1701 c-39 -16 -56 -46 -53 -91 6 -82 96 -112 151 -50 15 16 27
39 27 51 0 32 -26 74 -55 87 -30 14 -42 14 -70 3z"/>
<path d="M2256 1233 c-66 -76 -209 -133 -337 -133 -45 0 -49 -2 -56 -27 -12
-45 -7 -323 6 -393 50 -260 173 -444 356 -535 l78 -38 46 17 c230 85 377 311
412 635 10 95 6 291 -7 326 -3 7 -36 14 -87 18 -133 9 -245 59 -306 136 -18
23 -40 41 -49 41 -10 -1 -35 -21 -56 -47z m101 -69 c64 -60 174 -107 285 -119
67 -8 68 -9 68 -145 0 -177 -40 -357 -107 -483 -40 -75 -145 -175 -225 -216
l-66 -33 -69 33 c-174 86 -290 283 -323 549 -11 97 -13 177 -4 244 6 41 9 46
33 46 49 0 159 28 213 54 29 14 73 44 98 66 25 22 48 40 52 40 4 0 24 -16 45
-36z"/>
<path d="M2388 733 l-117 -117 -60 57 c-61 58 -91 66 -91 25 0 -23 126 -147
150 -148 8 0 74 59 145 130 109 109 128 133 119 147 -6 9 -15 18 -20 20 -5 2
-62 -50 -126 -114z"/>
<path d="M1132 1058 c-27 -27 -4 -111 47 -169 99 -117 291 -103 370 25 29 46
42 121 26 143 -20 27 -41 8 -53 -49 -20 -88 -87 -142 -174 -140 -50 1 -93 18
-119 48 -25 29 -49 80 -49 107 0 21 -16 47 -30 47 -3 0 -11 -5 -18 -12z"/>
</g>
</svg>
