<?xml version="1.0" standalone="no"?>
<!DOCTYPE svg PUBLIC "-//W3C//DTD SVG 20010904//EN"
 "http://www.w3.org/TR/2001/REC-SVG-20010904/DTD/svg10.dtd">
<svg version="1.0" xmlns="http://www.w3.org/2000/svg"
 width="100.000000pt" height="92.000000pt" viewBox="0 0 100.000000 92.000000"
 preserveAspectRatio="xMidYMid meet">

<g transform="translate(0.000000,92.000000) scale(0.100000,-0.100000)"
fill="#000000" stroke="none">
<path d="M505 900 c-3 -6 5 -10 19 -10 34 0 62 -41 47 -68 -15 -27 -34 -33
-133 -42 -58 -5 -104 -16 -135 -31 -68 -33 -135 -103 -163 -172 -13 -31 -27
-57 -32 -57 -18 0 -48 -42 -48 -68 0 -28 26 -62 48 -62 6 0 16 -17 22 -37 47
-150 218 -254 367 -224 31 6 59 13 61 16 12 11 -6 12 -65 2 -148 -25 -309 71
-345 208 -9 32 -18 44 -40 53 -25 9 -29 15 -26 44 2 22 10 36 27 44 14 8 32
34 47 70 30 77 111 155 185 179 68 23 177 17 235 -13 84 -43 140 -107 165
-190 8 -29 18 -42 33 -44 11 -2 27 -16 34 -31 16 -34 27 -29 18 7 -3 14 -19
32 -35 40 -17 9 -32 27 -36 43 -17 73 -90 153 -171 190 -22 9 -41 19 -43 20
-2 2 8 12 22 24 35 27 37 81 5 103 -26 18 -54 21 -63 6z"/>
<path d="M304 546 c-9 -24 4 -48 23 -44 12 2 18 12 18 28 0 29 -32 41 -41 16z"/>
<path d="M540 545 c-11 -13 -11 -19 3 -32 21 -21 49 -9 45 19 -4 28 -30 35
-48 13z"/>
<path d="M739 403 c-18 -21 -71 -43 -104 -43 -24 0 -25 -2 -25 -63 0 -35 7
-87 15 -115 18 -59 76 -127 117 -137 38 -10 92 25 123 80 30 50 50 150 41 200
-6 29 -11 35 -32 35 -34 0 -93 26 -100 45 -8 19 -18 19 -35 -2z m40 -27 c7 -8
34 -20 62 -27 l49 -13 0 -46 c0 -99 -57 -211 -115 -226 -35 -9 -81 21 -111 72
-22 37 -28 63 -32 125 -4 73 -3 79 15 79 11 0 40 11 64 24 53 30 54 30 68 12z"/>
<path d="M785 240 l-39 -40 -22 21 c-12 11 -24 16 -28 11 -3 -5 6 -20 20 -33
l25 -23 46 47 c26 25 45 49 42 51 -3 3 -23 -12 -44 -34z"/>
<path d="M370 336 c0 -48 50 -82 98 -65 36 12 71 79 42 79 -5 0 -10 -9 -10
-20 0 -11 -11 -27 -25 -36 -32 -21 -71 -7 -85 31 -10 28 -20 33 -20 11z"/>
</g>
</svg>
